# MagicaVoxel @ Ephtracy

# group
o 

# material
mtllib 二丁拳銃ってリロードどうすんだ？.mtl
usemtl palette

# normals
vn -1 0 0
vn 1 0 0
vn 0 0 1
vn 0 0 -1
vn 0 -1 0
vn 0 1 0

# texcoords
vt -0.00195312 0.5
vt 0.537109 0.5
vt 0.544922 0.5
vt 0.552734 0.5
vt 0.556641 0.5
vt 0.560547 0.5
vt 0.568359 0.5
vt 0.572266 0.5
vt 0.576172 0.5

# verts
v -1 1 0.1
v -1 1 -0.2
v -1 1.4 0.1
v -1 1.4 -0.2
v -0.9 0.9 0.1
v -0.9 0.9 -0.2
v -0.9 1 0.1
v -0.9 1 -0.2
v -0.9 1.4 0.1
v -0.9 1.4 -0.2
v -0.9 1.5 0.1
v -0.9 1.5 -0.2
v -0.8 0.8 0.1
v -0.8 0.8 -0.2
v -0.8 0.9 0.1
v -0.8 0.9 -0.2
v -0.3 0.7 0.1
v -0.3 0.7 -0.2
v -0.3 0.8 0.1
v -0.3 0.8 -0.2
v -0.1 0.6 0.1
v -0.1 0.6 -0.2
v -0.1 0.7 0.1
v -0.1 0.7 -0.2
v 0 0.5 0.1
v 0 0.5 -0.2
v 0 0.6 0.1
v 0 0.6 -0.2
v 0.4 0.3 0.1
v 0.4 0.3 -0.2
v 0.4 0.5 0.1
v 0.4 0.5 -0.2
v 0.5 0 0.1
v 0.5 0 -0.2
v 0.5 0.3 0.1
v 0.5 0.3 -0.2
v 0.7 1.3 0.1
v 0.7 1.3 -0.1
v 0.7 1.4 0.1
v 0.7 1.4 -0.1
v 0.8 1.2 0.1
v 0.8 1.2 -0.1
v 0.8 1.3 0.1
v 0.8 1.3 -0.1
v -0.8 1.4 0.1
v -0.8 1.4 -0.2
v -0.8 1.5 0.1
v -0.8 1.5 -0.2
v 0.6 1.3 0.1
v 0.6 1.3 -0.2
v 0.6 1.4 0.1
v 0.6 1.4 -0.2
v 0.7 0.7 0.1
v 0.7 0.7 -0.2
v 0.7 0.8 0.1
v 0.7 0.8 -0.2
v 0.7 1.2 0.1
v 0.7 1.2 -0.2
v 0.7 1.3 0.1
v 0.7 1.3 -0.1
v 0.7 1.3 -0.2
v 0.8 0.5 0.1
v 0.8 0.5 -0.2
v 0.8 0.7 0.1
v 0.8 0.7 -0.2
v 0.8 1.1 0.1
v 0.8 1.1 -0.2
v 0.8 1.2 0.1
v 0.8 1.2 -0.1
v 0.8 1.2 -0.2
v 0.9 0 0.1
v 0.9 0 -0.2
v 0.9 0.1 0.1
v 0.9 0.1 -0.2
v 0.9 0.4 0.1
v 0.9 0.4 -0.2
v 0.9 0.5 0.1
v 0.9 0.5 -0.2
v 0.9 1 0.1
v 0.9 1 -0.2
v 0.9 1.1 0.1
v 0.9 1.1 -0.2
v 0.9 1.2 0.1
v 0.9 1.2 -0.1
v 0.9 1.4 0.1
v 0.9 1.4 -0.1
v 1 0.1 0.1
v 1 0.1 -0.2
v 1 0.4 0.1
v 1 0.4 -0.2
v 1 0.8 0.1
v 1 0.8 -0.2
v 1 1 0.1
v 1 1 -0.2
v -1 1 0.1
v -1 1.4 0.1
v -0.9 0.9 0.1
v -0.9 1 0.1
v -0.9 1.1 0.1
v -0.9 1.3 0.1
v -0.9 1.4 0.1
v -0.9 1.5 0.1
v -0.8 0.8 0.1
v -0.8 0.9 0.1
v -0.8 1 0.1
v -0.8 1.1 0.1
v -0.8 1.2 0.1
v -0.8 1.4 0.1
v -0.8 1.5 0.1
v -0.7 0.9 0.1
v -0.7 1 0.1
v -0.7 1.1 0.1
v -0.7 1.2 0.1
v -0.7 1.3 0.1
v -0.5 0.9 0.1
v -0.5 1 0.1
v -0.5 1.1 0.1
v -0.4 0.9 0.1
v -0.4 1 0.1
v -0.4 1.1 0.1
v -0.4 1.2 0.1
v -0.4 1.3 0.1
v -0.3 0.7 0.1
v -0.3 0.8 0.1
v -0.3 0.9 0.1
v -0.3 1.1 0.1
v -0.3 1.2 0.1
v -0.3 1.3 0.1
v -0.2 1.1 0.1
v -0.2 1.2 0.1
v -0.2 1.3 0.1
v -0.1 0.6 0.1
v -0.1 0.7 0.1
v -0.1 0.8 0.1
v -0.1 0.9 0.1
v -0.1 1.2 0.1
v -0.1 1.3 0.1
v 0 0.5 0.1
v 0 0.6 0.1
v 0 0.8 0.1
v 0 0.9 0.1
v 0 1 0.1
v 0 1.2 0.1
v 0 1.3 0.1
v 0.1 0.7 0.1
v 0.1 0.8 0.1
v 0.1 1 0.1
v 0.1 1.1 0.1
v 0.1 1.2 0.1
v 0.1 1.3 0.1
v 0.2 0.6 0.1
v 0.2 0.7 0.1
v 0.2 0.8 0.1
v 0.2 0.9 0.1
v 0.2 1.2 0.1
v 0.2 1.3 0.1
v 0.3 0.6 0.1
v 0.3 0.8 0.1
v 0.3 0.9 0.1
v 0.3 1.2 0.1
v 0.4 0.3 0.1
v 0.4 0.5 0.1
v 0.4 0.6 0.1
v 0.4 0.8 0.1
v 0.4 0.9 0.1
v 0.4 1.2 0.1
v 0.5 0 0.1
v 0.5 0.3 0.1
v 0.5 0.4 0.1
v 0.5 0.5 0.1
v 0.5 0.6 0.1
v 0.5 0.7 0.1
v 0.5 0.8 0.1
v 0.5 0.9 0.1
v 0.5 1.2 0.1
v 0.6 0.1 0.1
v 0.6 0.3 0.1
v 0.6 0.4 0.1
v 0.6 0.5 0.1
v 0.6 0.6 0.1
v 0.6 0.7 0.1
v 0.6 0.9 0.1
v 0.6 1.2 0.1
v 0.6 1.3 0.1
v 0.6 1.4 0.1
v 0.7 0.1 0.1
v 0.7 0.3 0.1
v 0.7 0.4 0.1
v 0.7 0.5 0.1
v 0.7 0.6 0.1
v 0.7 0.7 0.1
v 0.7 0.8 0.1
v 0.7 1 0.1
v 0.7 1.2 0.1
v 0.7 1.3 0.1
v 0.7 1.4 0.1
v 0.8 0.1 0.1
v 0.8 0.2 0.1
v 0.8 0.3 0.1
v 0.8 0.4 0.1
v 0.8 0.5 0.1
v 0.8 0.7 0.1
v 0.8 0.9 0.1
v 0.8 1 0.1
v 0.8 1.1 0.1
v 0.8 1.2 0.1
v 0.8 1.3 0.1
v 0.9 0 0.1
v 0.9 0.1 0.1
v 0.9 0.2 0.1
v 0.9 0.3 0.1
v 0.9 0.4 0.1
v 0.9 0.5 0.1
v 0.9 0.9 0.1
v 0.9 1 0.1
v 0.9 1.1 0.1
v 0.9 1.2 0.1
v 0.9 1.4 0.1
v 1 0.1 0.1
v 1 0.4 0.1
v 1 0.8 0.1
v 1 1 0.1
v 0.7 1.3 -0.1
v 0.7 1.4 -0.1
v 0.8 1.2 -0.1
v 0.8 1.3 -0.1
v 0.9 1.2 -0.1
v 0.9 1.4 -0.1
v -1 1 -0.2
v -1 1.4 -0.2
v -0.9 0.9 -0.2
v -0.9 1 -0.2
v -0.9 1.1 -0.2
v -0.9 1.3 -0.2
v -0.9 1.4 -0.2
v -0.9 1.5 -0.2
v -0.8 0.8 -0.2
v -0.8 0.9 -0.2
v -0.8 1 -0.2
v -0.8 1.1 -0.2
v -0.8 1.2 -0.2
v -0.8 1.4 -0.2
v -0.8 1.5 -0.2
v -0.7 0.9 -0.2
v -0.7 1 -0.2
v -0.7 1.1 -0.2
v -0.7 1.2 -0.2
v -0.7 1.3 -0.2
v -0.5 0.9 -0.2
v -0.5 1 -0.2
v -0.5 1.1 -0.2
v -0.4 0.9 -0.2
v -0.4 1 -0.2
v -0.4 1.1 -0.2
v -0.4 1.2 -0.2
v -0.4 1.3 -0.2
v -0.3 0.7 -0.2
v -0.3 0.8 -0.2
v -0.3 0.9 -0.2
v -0.3 1.1 -0.2
v -0.3 1.2 -0.2
v -0.3 1.3 -0.2
v -0.2 1.1 -0.2
v -0.2 1.2 -0.2
v -0.2 1.3 -0.2
v -0.1 0.6 -0.2
v -0.1 0.7 -0.2
v -0.1 0.8 -0.2
v -0.1 0.9 -0.2
v -0.1 1.2 -0.2
v -0.1 1.3 -0.2
v 0 0.5 -0.2
v 0 0.6 -0.2
v 0 0.8 -0.2
v 0 0.9 -0.2
v 0 1 -0.2
v 0 1.2 -0.2
v 0 1.3 -0.2
v 0.1 0.7 -0.2
v 0.1 0.8 -0.2
v 0.1 1 -0.2
v 0.1 1.1 -0.2
v 0.1 1.2 -0.2
v 0.1 1.3 -0.2
v 0.2 0.6 -0.2
v 0.2 0.7 -0.2
v 0.2 0.8 -0.2
v 0.2 0.9 -0.2
v 0.2 1.2 -0.2
v 0.2 1.3 -0.2
v 0.3 0.6 -0.2
v 0.3 0.8 -0.2
v 0.3 0.9 -0.2
v 0.3 1.2 -0.2
v 0.4 0.3 -0.2
v 0.4 0.5 -0.2
v 0.4 0.6 -0.2
v 0.4 0.8 -0.2
v 0.4 0.9 -0.2
v 0.4 1.2 -0.2
v 0.5 0 -0.2
v 0.5 0.3 -0.2
v 0.5 0.4 -0.2
v 0.5 0.5 -0.2
v 0.5 0.6 -0.2
v 0.5 0.7 -0.2
v 0.5 0.8 -0.2
v 0.5 0.9 -0.2
v 0.5 1.2 -0.2
v 0.6 0.1 -0.2
v 0.6 0.3 -0.2
v 0.6 0.4 -0.2
v 0.6 0.5 -0.2
v 0.6 0.6 -0.2
v 0.6 0.7 -0.2
v 0.6 0.9 -0.2
v 0.6 1.2 -0.2
v 0.6 1.3 -0.2
v 0.6 1.4 -0.2
v 0.7 0.1 -0.2
v 0.7 0.3 -0.2
v 0.7 0.4 -0.2
v 0.7 0.5 -0.2
v 0.7 0.6 -0.2
v 0.7 0.7 -0.2
v 0.7 0.8 -0.2
v 0.7 1 -0.2
v 0.7 1.2 -0.2
v 0.7 1.3 -0.2
v 0.8 0.1 -0.2
v 0.8 0.2 -0.2
v 0.8 0.3 -0.2
v 0.8 0.4 -0.2
v 0.8 0.5 -0.2
v 0.8 0.7 -0.2
v 0.8 0.9 -0.2
v 0.8 1 -0.2
v 0.8 1.1 -0.2
v 0.8 1.2 -0.2
v 0.9 0 -0.2
v 0.9 0.1 -0.2
v 0.9 0.2 -0.2
v 0.9 0.3 -0.2
v 0.9 0.4 -0.2
v 0.9 0.5 -0.2
v 0.9 0.9 -0.2
v 0.9 1 -0.2
v 0.9 1.1 -0.2
v 1 0.1 -0.2
v 1 0.4 -0.2
v 1 0.8 -0.2
v 1 1 -0.2
v 0.5 0 0.1
v 0.9 0 0.1
v 0.5 0 -0.2
v 0.9 0 -0.2
v 0.9 0.1 0.1
v 1 0.1 0.1
v 0.9 0.1 -0.2
v 1 0.1 -0.2
v 0.4 0.3 0.1
v 0.5 0.3 0.1
v 0.4 0.3 -0.2
v 0.5 0.3 -0.2
v 0 0.5 0.1
v 0.4 0.5 0.1
v 0 0.5 -0.2
v 0.4 0.5 -0.2
v -0.1 0.6 0.1
v 0 0.6 0.1
v -0.1 0.6 -0.2
v 0 0.6 -0.2
v -0.3 0.7 0.1
v -0.1 0.7 0.1
v -0.3 0.7 -0.2
v -0.1 0.7 -0.2
v -0.8 0.8 0.1
v -0.3 0.8 0.1
v 0.7 0.8 0.1
v 1 0.8 0.1
v -0.8 0.8 -0.2
v -0.3 0.8 -0.2
v 0.7 0.8 -0.2
v 1 0.8 -0.2
v -0.9 0.9 0.1
v -0.8 0.9 0.1
v -0.9 0.9 -0.2
v -0.8 0.9 -0.2
v -1 1 0.1
v -0.9 1 0.1
v -1 1 -0.2
v -0.9 1 -0.2
v 0.8 1.2 0.1
v 0.9 1.2 0.1
v 0.8 1.2 -0.1
v 0.9 1.2 -0.1
v 0.7 1.3 0.1
v 0.8 1.3 0.1
v 0.7 1.3 -0.1
v 0.8 1.3 -0.1
v 0.9 0.4 0.1
v 1 0.4 0.1
v 0.9 0.4 -0.2
v 1 0.4 -0.2
v 0.8 0.5 0.1
v 0.9 0.5 0.1
v 0.8 0.5 -0.2
v 0.9 0.5 -0.2
v 0.7 0.7 0.1
v 0.8 0.7 0.1
v 0.7 0.7 -0.2
v 0.8 0.7 -0.2
v 0.9 1 0.1
v 1 1 0.1
v 0.9 1 -0.2
v 1 1 -0.2
v 0.8 1.1 0.1
v 0.9 1.1 0.1
v 0.8 1.1 -0.2
v 0.9 1.1 -0.2
v 0.7 1.2 0.1
v 0.8 1.2 0.1
v 0.8 1.2 -0.1
v 0.7 1.2 -0.2
v 0.8 1.2 -0.2
v 0.6 1.3 0.1
v 0.7 1.3 0.1
v 0.7 1.3 -0.1
v 0.6 1.3 -0.2
v 0.7 1.3 -0.2
v -1 1.4 0.1
v -0.9 1.4 0.1
v -0.8 1.4 0.1
v 0.6 1.4 0.1
v 0.7 1.4 0.1
v 0.9 1.4 0.1
v 0.7 1.4 -0.1
v 0.9 1.4 -0.1
v -1 1.4 -0.2
v -0.9 1.4 -0.2
v -0.8 1.4 -0.2
v 0.6 1.4 -0.2
v -0.9 1.5 0.1
v -0.8 1.5 0.1
v -0.9 1.5 -0.2
v -0.8 1.5 -0.2

# faces
f 3/2/1 2/2/1 1/2/1
f 4/2/1 2/2/1 3/2/1
f 7/2/1 6/2/1 5/2/1
f 8/2/1 6/2/1 7/2/1
f 11/2/1 10/2/1 9/2/1
f 12/2/1 10/2/1 11/2/1
f 15/2/1 14/2/1 13/2/1
f 16/2/1 14/2/1 15/2/1
f 19/2/1 18/2/1 17/2/1
f 20/2/1 18/2/1 19/2/1
f 23/2/1 22/2/1 21/2/1
f 24/2/1 22/2/1 23/2/1
f 27/2/1 26/2/1 25/2/1
f 28/2/1 26/2/1 27/2/1
f 31/2/1 30/2/1 29/2/1
f 32/2/1 30/2/1 31/2/1
f 35/2/1 34/2/1 33/2/1
f 36/2/1 34/2/1 35/2/1
f 39/2/1 38/2/1 37/2/1
f 40/2/1 38/2/1 39/2/1
f 43/2/1 42/2/1 41/2/1
f 44/2/1 42/2/1 43/2/1
f 45/2/2 46/2/2 47/2/2
f 47/2/2 46/2/2 48/2/2
f 49/2/2 50/2/2 51/2/2
f 51/2/2 50/2/2 52/2/2
f 53/2/2 54/2/2 55/2/2
f 55/2/2 54/2/2 56/2/2
f 57/2/2 58/2/2 59/2/2
f 59/2/2 58/2/2 60/2/2
f 60/2/2 58/2/2 61/2/2
f 62/2/2 63/2/2 64/2/2
f 64/2/2 63/2/2 65/2/2
f 66/2/2 67/2/2 68/2/2
f 68/2/2 67/2/2 69/2/2
f 69/2/2 67/2/2 70/2/2
f 71/2/2 72/2/2 73/2/2
f 73/2/2 72/2/2 74/2/2
f 75/2/2 76/2/2 77/2/2
f 77/2/2 76/2/2 78/2/2
f 79/2/2 80/2/2 81/2/2
f 81/2/2 80/2/2 82/2/2
f 83/2/2 84/2/2 85/2/2
f 85/2/2 84/2/2 86/2/2
f 87/2/2 88/2/2 89/2/2
f 89/2/2 88/2/2 90/2/2
f 91/2/2 92/2/2 93/2/2
f 93/2/2 92/2/2 94/2/2
f 98/2/3 96/2/3 95/2/3
f 99/2/3 96/2/3 98/2/3
f 100/2/3 96/2/3 99/2/3
f 101/2/3 96/2/3 100/2/3
f 104/2/3 98/2/3 97/2/3
f 104/2/3 99/2/3 98/2/3
f 105/2/3 99/2/3 104/2/3
f 106/3/3 100/3/3 99/3/3
f 106/2/3 99/2/3 105/2/3
f 107/3/3 100/3/3 106/3/3
f 108/2/3 102/2/3 101/2/3
f 108/2/3 101/2/3 100/2/3
f 109/2/3 102/2/3 108/2/3
f 110/6/3 105/6/3 104/6/3
f 110/2/3 104/2/3 103/2/3
f 111/2/3 106/2/3 105/2/3
f 111/6/3 105/6/3 110/6/3
f 112/6/3 107/6/3 106/6/3
f 112/2/3 106/2/3 111/2/3
f 113/3/3 100/3/3 107/3/3
f 113/6/3 107/6/3 112/6/3
f 114/2/3 108/2/3 100/2/3
f 114/3/3 100/3/3 113/3/3
f 115/4/3 111/4/3 110/4/3
f 115/2/3 110/2/3 103/2/3
f 116/2/3 112/2/3 111/2/3
f 116/4/3 111/4/3 115/4/3
f 117/5/3 113/5/3 112/5/3
f 117/2/3 112/2/3 116/2/3
f 118/2/3 115/2/3 103/2/3
f 118/2/3 116/2/3 115/2/3
f 119/4/3 117/4/3 116/4/3
f 119/2/3 116/2/3 118/2/3
f 120/5/3 113/5/3 117/5/3
f 120/4/3 117/4/3 119/4/3
f 121/6/3 114/6/3 113/6/3
f 121/5/3 113/5/3 120/5/3
f 122/2/3 108/2/3 114/2/3
f 122/6/3 114/6/3 121/6/3
f 124/2/3 118/2/3 103/2/3
f 125/4/3 119/4/3 118/4/3
f 125/2/3 118/2/3 124/2/3
f 126/6/3 121/6/3 120/6/3
f 126/5/3 120/5/3 119/5/3
f 127/3/3 122/3/3 121/3/3
f 127/6/3 121/6/3 126/6/3
f 128/2/3 108/2/3 122/2/3
f 128/3/3 122/3/3 127/3/3
f 129/3/3 127/3/3 126/3/3
f 129/5/3 126/5/3 119/5/3
f 130/2/3 128/2/3 127/2/3
f 130/3/3 127/3/3 129/3/3
f 131/2/3 108/2/3 128/2/3
f 131/2/3 128/2/3 130/2/3
f 133/2/3 124/2/3 123/2/3
f 134/4/3 125/4/3 124/4/3
f 134/2/3 124/2/3 133/2/3
f 135/4/3 119/4/3 125/4/3
f 135/4/3 125/4/3 134/4/3
f 136/2/3 130/2/3 129/2/3
f 136/4/3 131/4/3 130/4/3
f 137/2/3 108/2/3 131/2/3
f 137/4/3 131/4/3 136/4/3
f 139/2/3 134/2/3 133/2/3
f 139/2/3 133/2/3 132/2/3
f 139/2/3 135/2/3 134/2/3
f 140/2/3 135/2/3 139/2/3
f 141/4/3 119/4/3 135/4/3
f 141/2/3 135/2/3 140/2/3
f 142/5/3 129/5/3 119/5/3
f 142/4/3 119/4/3 141/4/3
f 143/2/3 136/2/3 129/2/3
f 143/5/3 137/5/3 136/5/3
f 144/2/3 108/2/3 137/2/3
f 144/5/3 137/5/3 143/5/3
f 145/3/3 140/3/3 139/3/3
f 146/2/3 141/2/3 140/2/3
f 146/3/3 140/3/3 145/3/3
f 147/5/3 129/5/3 142/5/3
f 147/6/3 142/6/3 141/6/3
f 148/2/3 143/2/3 129/2/3
f 148/5/3 129/5/3 147/5/3
f 149/4/3 144/4/3 143/4/3
f 149/2/3 143/2/3 148/2/3
f 150/2/3 108/2/3 144/2/3
f 150/4/3 144/4/3 149/4/3
f 151/3/3 145/3/3 139/3/3
f 151/2/3 139/2/3 138/2/3
f 152/2/3 146/2/3 145/2/3
f 152/3/3 145/3/3 151/3/3
f 153/2/3 141/2/3 146/2/3
f 153/2/3 146/2/3 152/2/3
f 154/6/3 147/6/3 141/6/3
f 154/2/3 141/2/3 153/2/3
f 154/6/3 149/6/3 148/6/3
f 154/6/3 148/6/3 147/6/3
f 155/2/3 150/2/3 149/2/3
f 155/6/3 149/6/3 154/6/3
f 156/2/3 108/2/3 150/2/3
f 156/2/3 150/2/3 155/2/3
f 157/2/3 152/2/3 151/2/3
f 157/2/3 153/2/3 152/2/3
f 157/2/3 151/2/3 138/2/3
f 158/5/3 154/5/3 153/5/3
f 158/2/3 153/2/3 157/2/3
f 158/5/3 155/5/3 154/5/3
f 159/5/3 155/5/3 158/5/3
f 160/6/3 156/6/3 155/6/3
f 160/5/3 155/5/3 159/5/3
f 162/2/3 157/2/3 138/2/3
f 163/9/3 158/9/3 157/9/3
f 163/2/3 157/2/3 162/2/3
f 164/5/3 159/5/3 158/5/3
f 164/9/3 158/9/3 163/9/3
f 165/6/3 160/6/3 159/6/3
f 165/5/3 159/5/3 164/5/3
f 166/6/3 156/6/3 160/6/3
f 166/6/3 160/6/3 165/6/3
f 168/2/3 162/2/3 161/2/3
f 169/2/3 162/2/3 168/2/3
f 170/9/3 163/9/3 162/9/3
f 170/2/3 162/2/3 169/2/3
f 171/8/3 164/8/3 163/8/3
f 171/9/3 163/9/3 170/9/3
f 172/8/3 164/8/3 171/8/3
f 173/5/3 165/5/3 164/5/3
f 173/8/3 164/8/3 172/8/3
f 173/5/3 166/5/3 165/5/3
f 174/5/3 166/5/3 173/5/3
f 175/6/3 156/6/3 166/6/3
f 175/5/3 166/5/3 174/5/3
f 176/2/3 168/2/3 167/2/3
f 177/9/3 169/9/3 168/9/3
f 177/2/3 168/2/3 176/2/3
f 178/8/3 170/8/3 169/8/3
f 178/9/3 169/9/3 177/9/3
f 178/8/3 171/8/3 170/8/3
f 179/8/3 171/8/3 178/8/3
f 180/7/3 172/7/3 171/7/3
f 180/8/3 171/8/3 179/8/3
f 181/5/3 174/5/3 173/5/3
f 181/7/3 172/7/3 180/7/3
f 181/5/3 173/5/3 172/5/3
f 182/6/3 175/6/3 174/6/3
f 182/5/3 174/5/3 181/5/3
f 183/6/3 156/6/3 175/6/3
f 183/6/3 175/6/3 182/6/3
f 184/2/3 108/2/3 156/2/3
f 184/6/3 156/6/3 183/6/3
f 185/2/3 108/2/3 184/2/3
f 186/2/3 176/2/3 167/2/3
f 186/9/3 177/9/3 176/9/3
f 187/8/3 178/8/3 177/8/3
f 187/9/3 177/9/3 186/9/3
f 188/7/3 179/7/3 178/7/3
f 188/8/3 178/8/3 187/8/3
f 189/3/3 180/3/3 179/3/3
f 189/7/3 179/7/3 188/7/3
f 190/6/3 181/6/3 180/6/3
f 190/3/3 180/3/3 189/3/3
f 191/2/3 182/2/3 181/2/3
f 191/6/3 181/6/3 190/6/3
f 192/2/3 182/2/3 191/2/3
f 193/5/3 183/5/3 182/5/3
f 194/2/3 184/2/3 183/2/3
f 194/5/3 183/5/3 193/5/3
f 195/2/3 184/2/3 194/2/3
f 197/8/3 187/8/3 186/8/3
f 197/2/3 186/2/3 167/2/3
f 198/8/3 187/8/3 197/8/3
f 199/7/3 188/7/3 187/7/3
f 199/8/3 187/8/3 198/8/3
f 200/3/3 189/3/3 188/3/3
f 200/7/3 188/7/3 199/7/3
f 201/2/3 190/2/3 189/2/3
f 201/3/3 189/3/3 200/3/3
f 201/2/3 191/2/3 190/2/3
f 202/2/3 191/2/3 201/2/3
f 203/2/3 182/2/3 192/2/3
f 203/5/3 193/5/3 182/5/3
f 204/2/3 194/2/3 193/2/3
f 204/5/3 193/5/3 203/5/3
f 205/2/3 194/2/3 204/2/3
f 206/2/3 194/2/3 205/2/3
f 207/2/3 196/2/3 195/2/3
f 208/2/3 197/2/3 167/2/3
f 209/4/3 198/4/3 197/4/3
f 209/2/3 197/2/3 208/2/3
f 210/5/3 199/5/3 198/5/3
f 210/4/3 198/4/3 209/4/3
f 211/6/3 200/6/3 199/6/3
f 211/5/3 199/5/3 210/5/3
f 212/2/3 201/2/3 200/2/3
f 212/6/3 200/6/3 211/6/3
f 213/2/3 201/2/3 212/2/3
f 214/2/3 203/2/3 192/2/3
f 214/3/3 204/3/3 203/3/3
f 215/2/3 205/2/3 204/2/3
f 215/3/3 204/3/3 214/3/3
f 216/2/3 205/2/3 215/2/3
f 217/2/3 207/2/3 206/2/3
f 218/2/3 196/2/3 207/2/3
f 218/2/3 207/2/3 217/2/3
f 219/2/3 211/2/3 210/2/3
f 219/2/3 210/2/3 209/2/3
f 219/2/3 212/2/3 211/2/3
f 220/2/3 212/2/3 219/2/3
f 221/2/3 215/2/3 214/2/3
f 221/2/3 214/2/3 192/2/3
f 222/2/3 215/2/3 221/2/3
f 223/2/4 224/2/4 226/2/4
f 225/2/4 226/2/4 227/2/4
f 226/2/4 224/2/4 228/2/4
f 227/2/4 226/2/4 228/2/4
f 229/2/4 230/2/4 232/2/4
f 232/2/4 230/2/4 233/2/4
f 233/2/4 230/2/4 234/2/4
f 234/2/4 230/2/4 235/2/4
f 231/2/4 232/2/4 238/2/4
f 232/2/4 233/2/4 238/2/4
f 238/2/4 233/2/4 239/2/4
f 233/3/4 234/3/4 240/3/4
f 239/2/4 233/2/4 240/2/4
f 240/3/4 234/3/4 241/3/4
f 235/2/4 236/2/4 242/2/4
f 234/2/4 235/2/4 242/2/4
f 242/2/4 236/2/4 243/2/4
f 238/6/4 239/6/4 244/6/4
f 237/2/4 238/2/4 244/2/4
f 239/2/4 240/2/4 245/2/4
f 244/6/4 239/6/4 245/6/4
f 240/6/4 241/6/4 246/6/4
f 245/2/4 240/2/4 246/2/4
f 241/3/4 234/3/4 247/3/4
f 246/6/4 241/6/4 247/6/4
f 234/2/4 242/2/4 248/2/4
f 247/3/4 234/3/4 248/3/4
f 244/4/4 245/4/4 249/4/4
f 237/2/4 244/2/4 249/2/4
f 245/2/4 246/2/4 250/2/4
f 249/4/4 245/4/4 250/4/4
f 246/5/4 247/5/4 251/5/4
f 250/2/4 246/2/4 251/2/4
f 237/2/4 249/2/4 252/2/4
f 249/2/4 250/2/4 252/2/4
f 250/4/4 251/4/4 253/4/4
f 252/2/4 250/2/4 253/2/4
f 251/5/4 247/5/4 254/5/4
f 253/4/4 251/4/4 254/4/4
f 247/6/4 248/6/4 255/6/4
f 254/5/4 247/5/4 255/5/4
f 248/2/4 242/2/4 256/2/4
f 255/6/4 248/6/4 256/6/4
f 237/2/4 252/2/4 258/2/4
f 252/4/4 253/4/4 259/4/4
f 258/2/4 252/2/4 259/2/4
f 254/6/4 255/6/4 260/6/4
f 253/5/4 254/5/4 260/5/4
f 255/3/4 256/3/4 261/3/4
f 260/6/4 255/6/4 261/6/4
f 256/2/4 242/2/4 262/2/4
f 261/3/4 256/3/4 262/3/4
f 260/3/4 261/3/4 263/3/4
f 253/5/4 260/5/4 263/5/4
f 261/2/4 262/2/4 264/2/4
f 263/3/4 261/3/4 264/3/4
f 262/2/4 242/2/4 265/2/4
f 264/2/4 262/2/4 265/2/4
f 257/2/4 258/2/4 267/2/4
f 258/4/4 259/4/4 268/4/4
f 267/2/4 258/2/4 268/2/4
f 259/4/4 253/4/4 269/4/4
f 268/4/4 259/4/4 269/4/4
f 263/2/4 264/2/4 270/2/4
f 264/4/4 265/4/4 270/4/4
f 265/2/4 242/2/4 271/2/4
f 270/4/4 265/4/4 271/4/4
f 267/2/4 268/2/4 273/2/4
f 266/2/4 267/2/4 273/2/4
f 268/2/4 269/2/4 273/2/4
f 273/2/4 269/2/4 274/2/4
f 269/4/4 253/4/4 275/4/4
f 274/2/4 269/2/4 275/2/4
f 253/5/4 263/5/4 276/5/4
f 275/4/4 253/4/4 276/4/4
f 263/2/4 270/2/4 277/2/4
f 270/5/4 271/5/4 277/5/4
f 271/2/4 242/2/4 278/2/4
f 277/5/4 271/5/4 278/5/4
f 273/3/4 274/3/4 279/3/4
f 274/2/4 275/2/4 280/2/4
f 279/3/4 274/3/4 280/3/4
f 276/5/4 263/5/4 281/5/4
f 275/6/4 276/6/4 281/6/4
f 263/2/4 277/2/4 282/2/4
f 281/5/4 263/5/4 282/5/4
f 277/4/4 278/4/4 283/4/4
f 282/2/4 277/2/4 283/2/4
f 278/2/4 242/2/4 284/2/4
f 283/4/4 278/4/4 284/4/4
f 273/3/4 279/3/4 285/3/4
f 272/2/4 273/2/4 285/2/4
f 279/2/4 280/2/4 286/2/4
f 285/3/4 279/3/4 286/3/4
f 280/2/4 275/2/4 287/2/4
f 286/2/4 280/2/4 287/2/4
f 275/6/4 281/6/4 288/6/4
f 287/2/4 275/2/4 288/2/4
f 282/6/4 283/6/4 288/6/4
f 281/6/4 282/6/4 288/6/4
f 283/2/4 284/2/4 289/2/4
f 288/6/4 283/6/4 289/6/4
f 284/2/4 242/2/4 290/2/4
f 289/2/4 284/2/4 290/2/4
f 285/2/4 286/2/4 291/2/4
f 286/2/4 287/2/4 291/2/4
f 272/2/4 285/2/4 291/2/4
f 287/5/4 288/5/4 292/5/4
f 291/2/4 287/2/4 292/2/4
f 288/5/4 289/5/4 292/5/4
f 292/5/4 289/5/4 293/5/4
f 289/6/4 290/6/4 294/6/4
f 293/5/4 289/5/4 294/5/4
f 272/2/4 291/2/4 296/2/4
f 291/9/4 292/9/4 297/9/4
f 296/2/4 291/2/4 297/2/4
f 292/5/4 293/5/4 298/5/4
f 297/9/4 292/9/4 298/9/4
f 293/6/4 294/6/4 299/6/4
f 298/5/4 293/5/4 299/5/4
f 294/6/4 290/6/4 300/6/4
f 299/6/4 294/6/4 300/6/4
f 295/2/4 296/2/4 302/2/4
f 302/2/4 296/2/4 303/2/4
f 296/9/4 297/9/4 304/9/4
f 303/2/4 296/2/4 304/2/4
f 297/8/4 298/8/4 305/8/4
f 304/9/4 297/9/4 305/9/4
f 305/8/4 298/8/4 306/8/4
f 298/5/4 299/5/4 307/5/4
f 306/8/4 298/8/4 307/8/4
f 299/5/4 300/5/4 307/5/4
f 307/5/4 300/5/4 308/5/4
f 300/6/4 290/6/4 309/6/4
f 308/5/4 300/5/4 309/5/4
f 301/2/4 302/2/4 310/2/4
f 302/9/4 303/9/4 311/9/4
f 310/2/4 302/2/4 311/2/4
f 303/8/4 304/8/4 312/8/4
f 311/9/4 303/9/4 312/9/4
f 304/8/4 305/8/4 312/8/4
f 312/8/4 305/8/4 313/8/4
f 305/7/4 306/7/4 314/7/4
f 313/8/4 305/8/4 314/8/4
f 307/5/4 308/5/4 315/5/4
f 314/7/4 306/7/4 315/7/4
f 306/5/4 307/5/4 315/5/4
f 308/6/4 309/6/4 316/6/4
f 315/5/4 308/5/4 316/5/4
f 309/6/4 290/6/4 317/6/4
f 316/6/4 309/6/4 317/6/4
f 290/2/4 242/2/4 318/2/4
f 317/6/4 290/6/4 318/6/4
f 318/2/4 242/2/4 319/2/4
f 301/2/4 310/2/4 320/2/4
f 310/9/4 311/9/4 320/9/4
f 311/8/4 312/8/4 321/8/4
f 320/9/4 311/9/4 321/9/4
f 312/7/4 313/7/4 322/7/4
f 321/8/4 312/8/4 322/8/4
f 313/3/4 314/3/4 323/3/4
f 322/7/4 313/7/4 323/7/4
f 314/6/4 315/6/4 324/6/4
f 323/3/4 314/3/4 324/3/4
f 315/2/4 316/2/4 325/2/4
f 324/6/4 315/6/4 325/6/4
f 325/2/4 316/2/4 326/2/4
f 316/5/4 317/5/4 327/5/4
f 317/2/4 318/2/4 328/2/4
f 327/5/4 317/5/4 328/5/4
f 328/2/4 318/2/4 329/2/4
f 320/8/4 321/8/4 330/8/4
f 301/2/4 320/2/4 330/2/4
f 330/8/4 321/8/4 331/8/4
f 321/7/4 322/7/4 332/7/4
f 331/8/4 321/8/4 332/8/4
f 322/3/4 323/3/4 333/3/4
f 332/7/4 322/7/4 333/7/4
f 323/2/4 324/2/4 334/2/4
f 333/3/4 323/3/4 334/3/4
f 324/2/4 325/2/4 334/2/4
f 334/2/4 325/2/4 335/2/4
f 326/2/4 316/2/4 336/2/4
f 316/5/4 327/5/4 336/5/4
f 327/2/4 328/2/4 337/2/4
f 336/5/4 327/5/4 337/5/4
f 337/2/4 328/2/4 338/2/4
f 338/2/4 328/2/4 339/2/4
f 301/2/4 330/2/4 340/2/4
f 330/4/4 331/4/4 341/4/4
f 340/2/4 330/2/4 341/2/4
f 331/5/4 332/5/4 342/5/4
f 341/4/4 331/4/4 342/4/4
f 332/6/4 333/6/4 343/6/4
f 342/5/4 332/5/4 343/5/4
f 333/2/4 334/2/4 344/2/4
f 343/6/4 333/6/4 344/6/4
f 344/2/4 334/2/4 345/2/4
f 326/2/4 336/2/4 346/2/4
f 336/3/4 337/3/4 346/3/4
f 337/2/4 338/2/4 347/2/4
f 346/3/4 337/3/4 347/3/4
f 347/2/4 338/2/4 348/2/4
f 342/2/4 343/2/4 349/2/4
f 341/2/4 342/2/4 349/2/4
f 343/2/4 344/2/4 349/2/4
f 349/2/4 344/2/4 350/2/4
f 346/2/4 347/2/4 351/2/4
f 326/2/4 346/2/4 351/2/4
f 351/2/4 347/2/4 352/2/4
f 355/2/5 354/2/5 353/2/5
f 356/2/5 354/2/5 355/2/5
f 359/2/5 358/2/5 357/2/5
f 360/2/5 358/2/5 359/2/5
f 363/2/5 362/2/5 361/2/5
f 364/2/5 362/2/5 363/2/5
f 367/2/5 366/2/5 365/2/5
f 368/2/5 366/2/5 367/2/5
f 371/2/5 370/2/5 369/2/5
f 372/2/5 370/2/5 371/2/5
f 375/2/5 374/2/5 373/2/5
f 376/2/5 374/2/5 375/2/5
f 381/2/5 378/2/5 377/2/5
f 382/2/5 378/2/5 381/2/5
f 383/2/5 380/2/5 379/2/5
f 384/2/5 380/2/5 383/2/5
f 387/2/5 386/2/5 385/2/5
f 388/2/5 386/2/5 387/2/5
f 391/2/5 390/2/5 389/2/5
f 392/2/5 390/2/5 391/2/5
f 395/2/5 394/2/5 393/2/5
f 396/2/5 394/2/5 395/2/5
f 399/2/5 398/2/5 397/2/5
f 400/2/5 398/2/5 399/2/5
f 401/2/6 402/2/6 403/2/6
f 403/2/6 402/2/6 404/2/6
f 405/2/6 406/2/6 407/2/6
f 407/2/6 406/2/6 408/2/6
f 409/2/6 410/2/6 411/2/6
f 411/2/6 410/2/6 412/2/6
f 413/2/6 414/2/6 415/2/6
f 415/2/6 414/2/6 416/2/6
f 417/2/6 418/2/6 419/2/6
f 419/2/6 418/2/6 420/2/6
f 421/2/6 422/2/6 423/2/6
f 421/2/6 423/2/6 424/2/6
f 424/2/6 423/2/6 425/2/6
f 426/2/6 427/2/6 428/2/6
f 426/2/6 428/2/6 429/2/6
f 429/2/6 428/2/6 430/2/6
f 435/2/6 436/2/6 437/2/6
f 437/2/6 436/2/6 438/2/6
f 431/2/6 432/2/6 439/2/6
f 439/2/6 432/2/6 440/2/6
f 433/2/6 434/2/6 441/2/6
f 441/2/6 434/2/6 442/2/6
f 443/2/6 444/2/6 445/2/6
f 445/2/6 444/2/6 446/2/6
